<svg width="62" height="63" viewBox="0 0 62 63" fill="none" xmlns="http://www.w3.org/2000/svg">
<path d="M55.0275 55.631L54.9875 55.5996C52.9895 53.9599 52.7049 51.0162 54.2925 48.9769C56.745 45.8231 58.5291 42.2026 59.5358 38.3364C63.6603 22.5773 54.2271 6.45729 38.4679 2.33405C22.7088 -1.78919 6.5888 7.64159 2.46434 23.4044C-1.66011 39.1671 7.77188 55.2835 23.5347 59.408C29.315 60.9301 35.4223 60.6512 41.04 58.6087C41.6342 58.3902 42.2659 58.2914 42.8985 58.318C43.5311 58.3446 44.1522 58.4961 44.7261 58.7637C48.9752 60.7776 53.7947 61.2423 58.3503 60.0776C59.5734 59.7676 59.6618 58.0638 58.4823 57.6146C57.232 57.1426 56.0655 56.4729 55.0275 55.631Z" fill="#EB1320"/>
<path d="M22.5725 39.3182C22.259 39.1389 22.0244 38.8481 21.9154 38.5037C21.8063 38.1594 21.8308 37.7866 21.984 37.4595C22.4052 36.5945 22.7661 35.7016 23.0642 34.7869C23.3206 33.8841 23.4985 32.9607 23.5958 32.0272C23.6077 31.9205 23.597 31.8125 23.5643 31.7103C23.5317 31.6081 23.4778 31.5139 23.4063 31.4339C23.3347 31.3539 23.2471 31.2899 23.1491 31.246C23.0512 31.2022 22.9451 31.1795 22.8377 31.1795H22.1402C21.7904 31.1795 21.4548 31.0406 21.2073 30.7934C20.9598 30.5461 20.8206 30.2107 20.8203 29.8608V23.3884C20.8203 23.081 20.9424 22.7862 21.1597 22.5689C21.3771 22.3516 21.6718 22.2295 21.9792 22.2295H25.5502C25.8576 22.2295 26.1523 22.3516 26.3697 22.5689C26.587 22.7862 26.7091 23.081 26.7091 23.3884V27.8228C26.7091 30.6201 26.5194 32.8151 26.14 34.4079C25.8445 35.6503 25.3282 37.0732 24.5912 38.6764C24.5077 38.8575 24.3875 39.0191 24.2381 39.151C24.0887 39.283 23.9134 39.3823 23.7235 39.4427C23.5335 39.5031 23.333 39.5232 23.1349 39.5018C22.9367 39.4804 22.7452 39.4179 22.5725 39.3182ZM37.0432 39.3182C36.7299 39.1387 36.4956 38.8478 36.3868 38.5035C36.278 38.1591 36.3027 37.7864 36.4559 37.4595C36.8774 36.5944 37.2391 35.7014 37.5385 34.7869C37.7945 33.884 37.972 32.9607 38.0689 32.0272C38.0808 31.9205 38.0701 31.8125 38.0375 31.7103C38.0048 31.6081 37.951 31.5139 37.8794 31.4339C37.8079 31.3539 37.7202 31.2899 37.6223 31.246C37.5243 31.2022 37.4182 31.1795 37.3109 31.1795H36.6134C36.2637 31.1792 35.9285 31.0402 35.6812 30.7929C35.434 30.5457 35.295 30.2105 35.2946 29.8608V23.3884C35.2943 23.0817 35.4157 22.7875 35.632 22.5703C35.8484 22.353 36.1421 22.2305 36.4487 22.2295H40.0173C40.3247 22.2295 40.6194 22.3516 40.8367 22.5689C41.0541 22.7862 41.1762 23.081 41.1762 23.3884V27.8228C41.1762 30.6201 40.9865 32.8151 40.607 34.4079C40.3116 35.6503 39.7953 37.0732 39.0582 38.6764C38.9746 38.8568 38.8544 39.0179 38.7053 39.1494C38.5561 39.2809 38.3813 39.3799 38.1918 39.4403C38.0024 39.5006 37.8024 39.5209 37.6047 39.4999C37.407 39.4789 37.2158 39.4171 37.0432 39.3182Z" fill="white"/>
<path d="M40.8562 58.6706C35.2871 60.6553 29.2484 60.9115 23.5313 59.4057C9.13325 55.6372 0.0161039 41.8568 1.69446 27.4854C10.0766 42.4235 24.0895 53.7784 40.8562 58.6706Z" fill="#EB1320"/>
</svg>
