<svg width="14" height="14" viewBox="0 0 14 14" fill="none" xmlns="http://www.w3.org/2000/svg">
<path d="M10.7913 10.5002C10.7913 11.1445 10.269 11.6668 9.62467 11.6668C8.98034 11.6668 8.45801 11.1445 8.45801 10.5002M10.7913 10.5002C10.7913 9.85583 10.269 9.3335 9.62467 9.3335C8.98034 9.3335 8.45801 9.85583 8.45801 10.5002M10.7913 10.5002H12.5413M8.45801 10.5002H7.87467M4.95801 10.5002C4.95801 11.1445 4.43567 11.6668 3.79134 11.6668C3.14701 11.6668 2.62467 11.1445 2.62467 10.5002M4.95801 10.5002C4.95801 9.85583 4.43567 9.3335 3.79134 9.3335C3.14701 9.3335 2.62467 9.85583 2.62467 10.5002M4.95801 10.5002H7.87467M2.62467 10.5002C1.98034 10.5002 1.45801 9.97783 1.45801 9.3335V4.20016C1.45801 3.54677 1.45801 3.22007 1.58517 2.97051C1.69702 2.75098 1.8755 2.57251 2.09502 2.46066C2.34458 2.3335 2.67128 2.3335 3.32467 2.3335H6.00801C6.6614 2.3335 6.9881 2.3335 7.23766 2.46066C7.45719 2.57251 7.63566 2.75098 7.74752 2.97051C7.87467 3.22007 7.87467 3.54677 7.87467 4.20016V10.5002M7.87467 10.5002V4.66683H10.208L11.958 7.00016M11.958 7.00016V10.5002M11.958 7.00016H7.87467" stroke="#F99A29" stroke-width="0.583333" stroke-linecap="round" stroke-linejoin="round"/>
</svg>
