<svg width="12" height="12" viewBox="0 0 12 12" fill="none" xmlns="http://www.w3.org/2000/svg">
<g clip-path="url(#clip0_194_3607)">
<path d="M11.7532 2.04441L6.10625 0.281928C6.03705 0.260207 5.96286 0.26019 5.89365 0.281881L0.246797 2.04441C0.175263 2.06674 0.112736 2.11135 0.0683384 2.17172C0.0239414 2.23209 -2.55747e-06 2.30507 2.04887e-10 2.38001L2.04887e-10 9.62043C-2.55747e-06 9.69537 0.0239414 9.76835 0.0683384 9.82872C0.112736 9.8891 0.175263 9.9337 0.246797 9.95603L5.89363 11.7186C5.95839 11.7391 6.03533 11.741 6.10623 11.7185L11.7532 9.95603C11.8247 9.9337 11.8873 9.8891 11.9317 9.82873C11.9761 9.76835 12 9.69537 12 9.62043V2.38001C12 2.30507 11.9761 2.23209 11.9317 2.17172C11.8873 2.11135 11.8247 2.06674 11.7532 2.04441ZM5.64831 10.9054L0.703126 9.36187V2.63857L5.64831 1.09505V10.9054ZM8.4003 1.73449L9.37835 2.03977V5.64866H8.4003V1.73449ZM11.2969 9.36187L6.35143 10.9054V1.09502L7.69717 1.51505V6.00022C7.69717 6.19438 7.85458 6.35178 8.04873 6.35178H9.72991C9.92407 6.35178 10.0815 6.19438 10.0815 6.00022V2.25921L11.2969 2.63857V9.36187Z" fill="#09927F"/>
</g>
<defs>
<clipPath id="clip0_194_3607">
<rect width="12" height="12" fill="white"/>
</clipPath>
</defs>
</svg>
