<svg width="640" height="274" viewBox="0 0 640 274" fill="none" xmlns="http://www.w3.org/2000/svg">
<path style="mix-blend-mode:multiply" d="M420.478 23.4799V46.4314H274.97V3.84082H170.697V249.64H274.97L532.206 251.168V23.4799H420.478Z" fill="url(#paint0_linear_197_4061)"/>
<path d="M505.76 38.956H436.903C436.44 38.956 435.996 38.7719 435.668 38.4442C435.34 38.1165 435.156 37.6721 435.156 37.2088C435.156 36.9793 435.201 36.7521 435.289 36.5401C435.377 36.3281 435.506 36.1355 435.668 35.9732C435.83 35.811 436.023 35.6823 436.235 35.5945C436.447 35.5066 436.674 35.4614 436.903 35.4614H505.76C505.989 35.4614 506.216 35.5066 506.428 35.5944C506.64 35.6822 506.833 35.811 506.995 35.9732C507.158 36.1355 507.286 36.3281 507.374 36.5401C507.462 36.7521 507.507 36.9793 507.507 37.2088C507.507 37.6721 507.323 38.1165 506.995 38.4442C506.668 38.7719 506.223 38.956 505.76 38.956Z" fill="white"/>
<path d="M505.76 52.5853H436.903C436.44 52.5853 435.996 52.4013 435.668 52.0736C435.34 51.7459 435.156 51.3015 435.156 50.8382C435.156 50.6087 435.201 50.3815 435.289 50.1695C435.377 49.9575 435.506 49.7649 435.668 49.6026C435.83 49.4404 436.023 49.3117 436.235 49.2239C436.447 49.136 436.674 49.0908 436.903 49.0908H505.76C505.989 49.0908 506.216 49.136 506.428 49.2239C506.64 49.3117 506.833 49.4404 506.995 49.6026C507.158 49.7649 507.286 49.9575 507.374 50.1695C507.462 50.3815 507.507 50.6087 507.507 50.8382C507.507 51.3015 507.323 51.746 506.995 52.0736C506.668 52.4013 506.223 52.5853 505.76 52.5853Z" fill="white"/>
<path d="M505.76 66.2143H436.903C436.44 66.2143 435.996 66.0302 435.668 65.7025C435.34 65.3749 435.156 64.9304 435.156 64.4671C435.156 64.0037 435.34 63.5592 435.668 63.2316C435.996 62.9039 436.44 62.7198 436.903 62.7197H505.76C506.223 62.7198 506.668 62.9039 506.995 63.2316C507.323 63.5592 507.507 64.0037 507.507 64.4671C507.507 64.9305 507.323 65.3749 506.995 65.7025C506.668 66.0302 506.223 66.2143 505.76 66.2143Z" fill="white"/>
<path d="M505.76 79.8443H436.903C436.44 79.8442 435.996 79.6601 435.668 79.3324C435.34 79.0047 435.156 78.5603 435.156 78.0969C435.156 77.6335 435.34 77.1891 435.668 76.8614C435.996 76.5337 436.44 76.3496 436.903 76.3496H505.76C506.223 76.3496 506.668 76.5337 506.995 76.8614C507.323 77.1891 507.507 77.6335 507.507 78.0969C507.507 78.5603 507.323 79.0047 506.995 79.3324C506.668 79.6601 506.223 79.8442 505.76 79.8443Z" fill="white"/>
<path d="M505.76 93.4735H436.903C436.44 93.4735 435.996 93.2894 435.668 92.9617C435.34 92.634 435.156 92.1896 435.156 91.7262C435.156 91.2628 435.34 90.8184 435.668 90.4908C435.996 90.1631 436.44 89.979 436.903 89.979H505.76C506.223 89.979 506.668 90.1631 506.995 90.4908C507.323 90.8184 507.507 91.2628 507.507 91.7262C507.507 92.1896 507.323 92.634 506.995 92.9617C506.668 93.2894 506.223 93.4735 505.76 93.4735Z" fill="white"/>
<path d="M505.76 107.103H436.903C436.674 107.103 436.447 107.058 436.235 106.97C436.023 106.883 435.83 106.754 435.668 106.592C435.506 106.429 435.377 106.237 435.289 106.025C435.201 105.813 435.156 105.586 435.156 105.356C435.156 104.893 435.34 104.448 435.668 104.121C435.996 103.793 436.44 103.609 436.903 103.609H505.76C506.223 103.609 506.668 103.793 506.995 104.121C507.323 104.448 507.507 104.893 507.507 105.356C507.507 105.586 507.462 105.813 507.374 106.025C507.286 106.237 507.158 106.429 506.995 106.592C506.833 106.754 506.64 106.883 506.428 106.97C506.216 107.058 505.989 107.103 505.76 107.103Z" fill="white"/>
<path d="M191.571 16.6606H182.621V25.6106H191.571V16.6606Z" fill="white"/>
<path d="M209.643 16.6606H200.693V25.6106H209.643V16.6606Z" fill="white"/>
<path d="M227.714 16.6606H218.764V25.6106H227.714V16.6606Z" fill="white"/>
<path d="M245.782 16.6606H236.832V25.6106H245.782V16.6606Z" fill="white"/>
<path d="M191.571 38.9561H182.621V47.9062H191.571V38.9561Z" fill="white"/>
<path d="M209.643 38.9561H200.693V47.9062H209.643V38.9561Z" fill="white"/>
<path d="M227.714 38.9561H218.764V47.9062H227.714V38.9561Z" fill="white"/>
<path d="M245.782 38.9561H236.832V47.9062H245.782V38.9561Z" fill="white"/>
<path d="M191.571 61.251H182.621V70.2011H191.571V61.251Z" fill="white"/>
<path d="M209.643 61.251H200.693V70.2011H209.643V61.251Z" fill="white"/>
<path d="M227.714 61.251H218.764V70.2011H227.714V61.251Z" fill="white"/>
<path d="M245.782 61.251H236.832V70.2011H245.782V61.251Z" fill="white"/>
<path d="M362.194 198.917C354.775 214.766 344.788 214.766 341.506 214.766C333.546 214.766 326.949 209.741 321.897 199.829C315.827 187.919 312.618 170.049 312.618 148.151C312.618 147.864 312.625 147.585 312.626 147.3H270.551C270.55 147.491 270.543 147.676 270.543 147.867V147.907L270.543 147.947C270.832 179.042 277.273 204.942 289.17 222.846C301.481 241.375 319.089 251.169 340.088 251.169C363.192 251.169 382.04 241.151 394.594 222.197C406.397 204.377 412.485 179.174 412.729 147.3H370.669C370.595 169.372 367.672 187.212 362.194 198.917Z" fill="#EB1320"/>
<path d="M328.928 259.05H288.924L291.63 243.633L294.31 228.323L297.016 212.899L299.703 197.589L301.716 186.111C301.902 185.037 302.462 184.065 303.296 183.364C304.13 182.663 305.184 182.279 306.273 182.28H311.579C312.668 182.28 313.722 182.665 314.555 183.365C315.389 184.066 315.949 185.038 316.136 186.111L318.15 197.589L320.836 212.899L323.542 228.323L326.222 243.633L328.928 259.05Z" fill="#FFA726"/>
<path d="M341.343 268.058H276.514L288.923 259.055H328.932L341.343 268.058Z" fill="#FB8C00"/>
<path d="M276.512 268.058H341.341V269.42C341.341 270.374 340.962 271.289 340.287 271.964C339.613 272.639 338.698 273.018 337.743 273.018H280.109C279.155 273.018 278.24 272.639 277.565 271.964C276.891 271.289 276.512 270.374 276.512 269.42V268.058Z" fill="#FFA726"/>
<path d="M320.837 212.899H297.018L299.704 197.59H318.151L320.837 212.899Z" fill="#ECEFF1"/>
<path d="M326.222 243.633H291.631L294.31 228.323H323.543L326.222 243.633Z" fill="#ECEFF1"/>
<path style="mix-blend-mode:multiply" d="M341.341 271.309V268.057L328.932 259.053L328.926 259.05H328.93L326.223 243.633L323.544 228.323L320.837 212.899L318.151 197.589L316.138 186.111C315.95 185.038 315.39 184.066 314.557 183.365C313.723 182.665 312.669 182.28 311.58 182.28L319.447 259.05L328.93 268.057V273.018H339.633C339.857 273.018 340.079 272.973 340.286 272.888C340.494 272.802 340.682 272.676 340.841 272.517C341 272.358 341.125 272.17 341.211 271.963C341.297 271.755 341.341 271.533 341.341 271.309Z" fill="url(#paint1_linear_197_4061)"/>
<path style="mix-blend-mode:multiply" d="M276.512 271.309V268.057L288.922 259.053L288.927 259.05H288.924L291.63 243.633L294.31 228.323L297.016 212.899L299.702 197.589L301.715 186.111C301.903 185.038 302.463 184.066 303.297 183.365C304.13 182.665 305.184 182.28 306.273 182.28L298.406 259.05L288.924 268.057V273.018H278.221C277.996 273.018 277.774 272.973 277.567 272.888C277.359 272.802 277.171 272.676 277.012 272.517C276.854 272.358 276.728 272.17 276.642 271.963C276.556 271.755 276.512 271.533 276.512 271.309Z" fill="url(#paint2_linear_197_4061)"/>
<path d="M414.601 71.9694C402.472 53.2992 384.406 43.4307 362.358 43.4307C340.597 43.4307 322.232 53.2532 309.248 71.8365C296.533 90.0353 289.783 116.123 289.701 147.299H331.777C331.861 125.076 335.209 106.938 341.484 94.8197C346.633 84.8755 353.179 79.8333 360.94 79.8333C371.729 79.8333 389.827 88.4877 389.827 146.449C389.827 146.735 389.821 147.013 389.82 147.299H431.88C431.885 146.634 431.903 145.985 431.903 145.314C431.903 114.318 426.082 89.6413 414.601 71.9694Z" fill="#EB1320"/>
<path d="M575.023 158.032H557.765V43.4307H517.801L515.247 47.0859L432.982 164.808L431.439 167.016V194.718H517.107V244.927H557.765V194.718H583.579V158.032H575.023ZM481.532 158.032L517.107 108.584V158.032H481.532Z" fill="#EB1320"/>
<path d="M103.434 245.34C102.778 245.339 102.145 245.097 101.656 244.66C101.168 244.223 100.857 243.621 100.783 242.969L74.0736 6.14808C73.994 5.44421 74.1973 4.73758 74.6387 4.18361C75.0802 3.62964 75.7236 3.27372 76.4275 3.19416C77.1314 3.1146 77.838 3.31789 78.392 3.75934C78.946 4.2008 79.3019 4.84425 79.3815 5.54812L106.091 242.369C106.171 243.073 105.967 243.78 105.526 244.334C105.084 244.888 104.44 245.243 103.736 245.323C103.636 245.334 103.535 245.34 103.434 245.34Z" fill="#8C9EA5"/>
<path d="M175.737 245.34C175.081 245.339 174.448 245.097 173.959 244.66C173.47 244.223 173.159 243.621 173.086 242.969L146.376 6.14817C146.297 5.44428 146.5 4.73761 146.941 4.18363C147.383 3.62964 148.026 3.27372 148.73 3.19416C149.434 3.11459 150.141 3.31792 150.695 3.75939C151.249 4.20085 151.605 4.84431 151.684 5.54821L178.394 242.369C178.433 242.718 178.404 243.071 178.306 243.408C178.209 243.745 178.047 244.059 177.828 244.334C177.61 244.608 177.339 244.837 177.032 245.006C176.725 245.176 176.388 245.284 176.039 245.323C175.939 245.334 175.838 245.34 175.737 245.34Z" fill="#8C9EA5"/>
<path d="M151.815 33.2228H79.5128C78.8044 33.2228 78.125 32.9414 77.6241 32.4405C77.1232 31.9396 76.8418 31.2602 76.8418 30.5518C76.8418 29.8434 77.1232 29.1641 77.6241 28.6632C78.125 28.1623 78.8044 27.8809 79.5128 27.8809H151.815C152.523 27.8809 153.202 28.1623 153.703 28.6632C154.204 29.1641 154.486 29.8434 154.486 30.5518C154.486 31.2602 154.204 31.9396 153.703 32.4405C153.202 32.9414 152.523 33.2228 151.815 33.2228Z" fill="#8C9EA5"/>
<path d="M153.327 56.7213H82.5362C81.8278 56.7213 81.1484 56.4399 80.6475 55.939C80.1466 55.4381 79.8652 54.7587 79.8652 54.0504C79.8652 53.342 80.1466 52.6626 80.6475 52.1617C81.1484 51.6608 81.8278 51.3794 82.5362 51.3794H153.327C154.036 51.3794 154.715 51.6608 155.216 52.1617C155.717 52.6626 155.998 53.342 155.998 54.0504C155.998 54.7587 155.717 55.4381 155.216 55.939C154.715 56.4399 154.036 56.7213 153.327 56.7213Z" fill="#8C9EA5"/>
<path d="M154.836 80.2198H85.5557C84.8474 80.2198 84.168 79.9384 83.6671 79.4375C83.1662 78.9366 82.8848 78.2573 82.8848 77.5489C82.8848 76.8405 83.1662 76.1611 83.6671 75.6602C84.168 75.1593 84.8474 74.8779 85.5557 74.8779H154.836C155.545 74.8779 156.224 75.1593 156.725 75.6602C157.226 76.1611 157.507 76.8405 157.507 77.5489C157.507 78.2573 157.226 78.9366 156.725 79.4375C156.224 79.9384 155.545 80.2198 154.836 80.2198Z" fill="#8C9EA5"/>
<path d="M159.767 103.719H88.6866C87.9782 103.719 87.2988 103.437 86.7979 102.937C86.297 102.436 86.0156 101.756 86.0156 101.048C86.0156 100.34 86.297 99.6602 86.7979 99.1593C87.2988 98.6584 87.9782 98.377 88.6866 98.377H159.767C160.475 98.377 161.155 98.6584 161.656 99.1593C162.157 99.6602 162.438 100.34 162.438 101.048C162.438 101.756 162.157 102.436 161.656 102.937C161.155 103.437 160.475 103.719 159.767 103.719Z" fill="#8C9EA5"/>
<path d="M162.384 127.217H90.8819C90.1735 127.217 89.4941 126.936 88.9932 126.435C88.4923 125.934 88.2109 125.255 88.2109 124.546C88.2109 123.838 88.4923 123.159 88.9932 122.658C89.4941 122.157 90.1735 121.875 90.8819 121.875H162.384C163.093 121.875 163.772 122.157 164.273 122.658C164.774 123.159 165.055 123.838 165.055 124.546C165.055 125.255 164.774 125.934 164.273 126.435C163.772 126.936 163.093 127.217 162.384 127.217Z" fill="#8C9EA5"/>
<path d="M165.068 150.716H93.5011C92.7927 150.716 92.1133 150.435 91.6124 149.934C91.1115 149.433 90.8301 148.753 90.8301 148.045C90.8301 147.337 91.1115 146.657 91.6124 146.156C92.1133 145.655 92.7927 145.374 93.5011 145.374H165.068C165.776 145.374 166.456 145.655 166.957 146.156C167.457 146.657 167.739 147.337 167.739 148.045C167.739 148.753 167.457 149.433 166.957 149.934C166.456 150.435 165.776 150.716 165.068 150.716Z" fill="#8C9EA5"/>
<path d="M149.556 10.7559H71.847C70.5454 10.7559 69.2972 10.2389 68.3769 9.31853C67.4565 8.3982 66.9395 7.14995 66.9395 5.8484C66.9394 5.20394 67.0664 4.5658 67.313 3.97039C67.5596 3.37498 67.9211 2.83398 68.3768 2.37827C68.8325 1.92257 69.3735 1.56109 69.9689 1.31447C70.5643 1.06784 71.2025 0.940914 71.847 0.940918H149.556C150.2 0.940914 150.839 1.06784 151.434 1.31447C152.029 1.56109 152.57 1.92257 153.026 2.37827C153.482 2.83398 153.843 3.37498 154.09 3.97039C154.337 4.5658 154.463 5.20394 154.463 5.8484C154.463 7.14995 153.946 8.3982 153.026 9.31853C152.106 10.2389 150.858 10.7559 149.556 10.7559Z" fill="#B0BEC5"/>
<path d="M119.094 245.34C118.993 245.34 118.892 245.334 118.792 245.323C118.088 245.244 117.444 244.888 117.002 244.334C116.561 243.78 116.357 243.073 116.437 242.369L143.146 5.54821C143.226 4.84431 143.582 4.20085 144.136 3.75939C144.69 3.31792 145.397 3.11459 146.1 3.19416C146.804 3.27372 147.448 3.62964 147.889 4.18363C148.331 4.73761 148.534 5.44428 148.454 6.14817L121.745 242.969C121.671 243.621 121.36 244.222 120.871 244.66C120.382 245.097 119.75 245.339 119.094 245.34Z" fill="#B0BEC5"/>
<path d="M46.7913 245.34C46.6902 245.34 46.5892 245.334 46.4887 245.323C45.7848 245.243 45.1412 244.888 44.6996 244.334C44.2581 243.78 44.0546 243.073 44.134 242.369L70.8437 5.54821C70.9232 4.84431 71.2792 4.20085 71.8331 3.75939C72.3871 3.31792 73.0938 3.11459 73.7977 3.19416C74.5016 3.27372 75.145 3.62964 75.5865 4.18363C76.028 4.73761 76.2313 5.44428 76.1517 6.14817L49.4421 242.969C49.3683 243.621 49.0574 244.222 48.5686 244.66C48.0798 245.097 47.4472 245.339 46.7913 245.34Z" fill="#B0BEC5"/>
<path d="M143.013 33.2228H70.712C70.0036 33.2228 69.3242 32.9414 68.8233 32.4405C68.3224 31.9396 68.041 31.2602 68.041 30.5518C68.041 29.8434 68.3224 29.1641 68.8233 28.6632C69.3242 28.1623 70.0036 27.8809 70.712 27.8809H143.013C143.721 27.8809 144.401 28.1623 144.902 28.6632C145.403 29.1641 145.684 29.8434 145.684 30.5518C145.684 31.2602 145.403 31.9396 144.902 32.4405C144.401 32.9414 143.721 33.2228 143.013 33.2228Z" fill="#B0BEC5"/>
<path d="M139.991 56.7213H69.2003C68.4919 56.7213 67.8125 56.4399 67.3116 55.939C66.8107 55.4381 66.5293 54.7587 66.5293 54.0504C66.5293 53.342 66.8107 52.6626 67.3116 52.1617C67.8125 51.6608 68.4919 51.3794 69.2003 51.3794H139.991C140.699 51.3794 141.379 51.6608 141.88 52.1617C142.381 52.6626 142.662 53.342 142.662 54.0504C142.662 54.7587 142.381 55.4381 141.88 55.939C141.379 56.4399 140.699 56.7213 139.991 56.7213Z" fill="#B0BEC5"/>
<path d="M136.973 80.2198H67.6924C66.9841 80.2198 66.3047 79.9384 65.8038 79.4375C65.3029 78.9366 65.0215 78.2573 65.0215 77.5489C65.0215 76.8405 65.3029 76.1611 65.8038 75.6602C66.3047 75.1593 66.9841 74.8779 67.6924 74.8779H136.973C137.681 74.8779 138.361 75.1593 138.862 75.6602C139.363 76.1611 139.644 76.8405 139.644 77.5489C139.644 78.2573 139.363 78.9366 138.862 79.4375C138.361 79.9384 137.681 80.2198 136.973 80.2198Z" fill="#B0BEC5"/>
<path d="M133.841 103.719H62.7608C62.0524 103.719 61.3731 103.437 60.8721 102.937C60.3712 102.436 60.0898 101.756 60.0898 101.048C60.0898 100.34 60.3712 99.6602 60.8721 99.1593C61.3731 98.6584 62.0524 98.377 62.7608 98.377H133.841C134.549 98.377 135.228 98.6584 135.729 99.1593C136.23 99.6602 136.512 100.34 136.512 101.048C136.512 101.756 136.23 102.436 135.729 102.937C135.228 103.437 134.549 103.719 133.841 103.719Z" fill="#B0BEC5"/>
<path d="M131.646 127.217H60.1436C59.4352 127.217 58.7559 126.936 58.255 126.435C57.7541 125.934 57.4727 125.255 57.4727 124.546C57.4727 123.838 57.7541 123.159 58.255 122.658C58.7559 122.157 59.4352 121.875 60.1436 121.875H131.646C132.354 121.875 133.034 122.157 133.535 122.658C134.036 123.159 134.317 123.838 134.317 124.546C134.317 125.255 134.036 125.934 133.535 126.435C133.034 126.936 132.354 127.217 131.646 127.217Z" fill="#B0BEC5"/>
<path d="M129.027 150.716H57.46C56.7516 150.716 56.0723 150.435 55.5714 149.934C55.0705 149.433 54.7891 148.753 54.7891 148.045C54.7891 147.337 55.0705 146.657 55.5714 146.156C56.0723 145.655 56.7516 145.374 57.46 145.374H129.027C129.735 145.374 130.415 145.655 130.916 146.156C131.416 146.657 131.698 147.337 131.698 148.045C131.698 148.753 131.416 149.433 130.916 149.934C130.415 150.435 129.735 150.716 129.027 150.716Z" fill="#B0BEC5"/>
<path d="M195.999 177.612L284.502 119.194L291.644 114.48L286.93 107.339L272.085 84.8485L269.628 81.1268L265.171 81.0086L121.604 77.2028L118.911 77.1313L116.663 78.615L102.932 87.6787L95.791 92.3922L100.505 99.5333L142.984 163.889L108.221 186.835L101.08 191.548L105.794 198.69L118.764 218.339L123.478 225.48L130.619 220.767L165.381 197.821L174.888 212.224L179.602 219.366L186.743 214.652L203.078 203.869L210.219 199.156L205.506 192.015L195.999 177.612ZM154.003 113.988L214.87 116.44L173.602 143.68L154.003 113.988Z" fill="#EB1320"/>
<path d="M71.4241 214.493C65.566 214.493 59.9477 216.82 55.8054 220.963C51.6631 225.105 49.3359 230.723 49.3359 236.581C49.3359 242.439 51.6631 248.058 55.8054 252.2C59.9477 256.342 65.566 258.669 71.4241 258.669H258.231V214.493H71.4241Z" fill="#B0BEC5"/>
<path style="mix-blend-mode:multiply" d="M71.4241 214.493C65.566 214.493 59.9477 216.82 55.8054 220.963C51.6631 225.105 49.3359 230.723 49.3359 236.581C49.3359 242.439 51.6631 248.058 55.8054 252.2C59.9477 256.342 65.566 258.669 71.4241 258.669H258.231V214.493H71.4241Z" fill="url(#paint3_linear_197_4061)"/>
<path d="M266.606 257.021C277.894 252.397 283.296 239.497 278.672 228.208C274.048 216.92 261.148 211.517 249.86 216.142C238.571 220.766 233.169 233.666 237.793 244.954C242.417 256.243 255.317 261.645 266.606 257.021Z" fill="#CFD8DC"/>
<path d="M258.232 252.503C267.025 252.503 274.153 245.375 274.153 236.582C274.153 227.789 267.025 220.661 258.232 220.661C249.439 220.661 242.311 227.789 242.311 236.582C242.311 245.375 249.439 252.503 258.232 252.503Z" fill="#B0BEC5"/>
<path style="mix-blend-mode:multiply" d="M258.232 252.503C267.025 252.503 274.153 245.375 274.153 236.582C274.153 227.789 267.025 220.661 258.232 220.661C249.439 220.661 242.311 227.789 242.311 236.582C242.311 245.375 249.439 252.503 258.232 252.503Z" fill="url(#paint4_linear_197_4061)"/>
<path d="M47.6213 175.17C41.7632 175.17 36.145 177.497 32.0027 181.639C27.8603 185.782 25.5332 191.4 25.5332 197.258C25.5332 203.116 27.8603 208.734 32.0027 212.877C36.145 217.019 41.7632 219.346 47.6213 219.346H234.429V175.17H47.6213Z" fill="#B0BEC5"/>
<path style="mix-blend-mode:multiply" d="M47.6213 175.17C41.7632 175.17 36.145 177.497 32.0027 181.639C27.8603 185.782 25.5332 191.4 25.5332 197.258C25.5332 203.116 27.8603 208.734 32.0027 212.877C36.145 217.019 41.7632 219.346 47.6213 219.346H234.429V175.17H47.6213Z" fill="url(#paint5_linear_197_4061)"/>
<path d="M250.047 212.877C258.673 204.251 258.673 190.266 250.048 181.64C241.422 173.014 227.436 173.014 218.81 181.64C210.184 190.266 210.184 204.251 218.81 212.877C227.436 221.503 241.422 221.503 250.047 212.877Z" fill="#CFD8DC"/>
<path d="M234.427 213.18C243.22 213.18 250.348 206.051 250.348 197.258C250.348 188.465 243.22 181.337 234.427 181.337C225.634 181.337 218.506 188.465 218.506 197.258C218.506 206.051 225.634 213.18 234.427 213.18Z" fill="#B0BEC5"/>
<path style="mix-blend-mode:multiply" d="M234.427 213.18C243.22 213.18 250.348 206.051 250.348 197.258C250.348 188.465 243.22 181.337 234.427 181.337C225.634 181.337 218.506 188.465 218.506 197.258C218.506 206.051 225.634 213.18 234.427 213.18Z" fill="url(#paint6_linear_197_4061)"/>
<path d="M22.9925 214.493C17.1343 214.493 11.5161 216.82 7.37377 220.963C3.23144 225.105 0.904297 230.723 0.904297 236.581C0.904297 242.439 3.23144 248.058 7.37377 252.2C11.5161 256.342 17.1343 258.669 22.9925 258.669H209.8V214.493H22.9925Z" fill="#B0BEC5"/>
<path d="M218.407 256.924C229.642 252.17 234.896 239.209 230.143 227.975C225.39 216.74 212.429 211.485 201.194 216.239C189.959 220.992 184.705 233.953 189.458 245.188C194.211 256.422 207.172 261.677 218.407 256.924Z" fill="#CFD8DC"/>
<path d="M209.8 252.503C218.593 252.503 225.721 245.375 225.721 236.582C225.721 227.789 218.593 220.661 209.8 220.661C201.007 220.661 193.879 227.789 193.879 236.582C193.879 245.375 201.007 252.503 209.8 252.503Z" fill="#B0BEC5"/>
<path style="mix-blend-mode:multiply" d="M209.8 252.503C218.593 252.503 225.721 245.375 225.721 236.582C225.721 227.789 218.593 220.661 209.8 220.661C201.007 220.661 193.879 227.789 193.879 236.582C193.879 245.375 201.007 252.503 209.8 252.503Z" fill="url(#paint7_linear_197_4061)"/>
<path d="M607.872 215.321V163.215C607.872 159.827 604.647 157.08 600.669 157.08H549.18C545.202 157.08 541.977 159.827 541.977 163.215V215.321C542.063 218.253 542.925 221.111 544.474 223.603C546.023 226.095 548.204 228.132 550.796 229.507L567.205 239.005C569.562 240.331 572.22 241.028 574.924 241.028C577.628 241.028 580.287 240.331 582.643 239.005L599.053 229.507C601.644 228.132 603.826 226.095 605.375 223.603C606.924 221.111 607.786 218.253 607.872 215.321Z" fill="#90A4AE"/>
<path style="mix-blend-mode:multiply" d="M574.475 157.08V184.069C574.475 185.525 575.053 186.921 576.082 187.951C577.112 188.98 578.508 189.558 579.964 189.558C581.42 189.558 582.816 188.98 583.845 187.951C584.875 186.921 585.453 185.525 585.453 184.069V157.08H574.475Z" fill="url(#paint8_linear_197_4061)"/>
<path d="M580.414 54.0508V184.07C580.414 184.791 580.272 185.504 579.996 186.17C579.72 186.836 579.316 187.442 578.806 187.951C578.297 188.461 577.692 188.865 577.026 189.141C576.36 189.417 575.646 189.559 574.925 189.559C574.204 189.559 573.49 189.417 572.824 189.141C572.158 188.865 571.553 188.461 571.043 187.951C570.534 187.442 570.129 186.837 569.853 186.171C569.578 185.505 569.436 184.791 569.436 184.07V54.0508H580.414Z" fill="#37474F"/>
<path style="mix-blend-mode:multiply" d="M572.18 188.819C573.013 189.303 573.96 189.558 574.924 189.559C575.888 189.561 576.835 189.308 577.67 188.826C578.505 188.344 579.198 187.651 579.68 186.816C580.162 185.981 580.415 185.034 580.414 184.07V54.0508H574.924V184.07C574.924 185.033 574.67 185.979 574.189 186.812C573.707 187.646 573.014 188.338 572.18 188.819Z" fill="url(#paint9_linear_197_4061)"/>
<path d="M601.637 7.053V30.5519C601.637 37.6361 598.823 44.4302 593.814 49.4395C588.804 54.4488 582.01 57.263 574.926 57.263C567.842 57.263 561.048 54.4488 556.038 49.4395C551.029 44.4302 548.215 37.6361 548.215 30.5519V7.053C548.215 6.20107 548.553 5.38405 549.156 4.78165C549.758 4.17926 550.575 3.84084 551.427 3.84082H598.425C599.277 3.84086 600.094 4.17929 600.696 4.78167C601.299 5.38406 601.637 6.20108 601.637 7.053ZM554.639 30.5519C554.639 35.9322 556.777 41.0921 560.581 44.8966C564.386 48.701 569.546 50.8383 574.926 50.8383C580.306 50.8383 585.466 48.701 589.271 44.8966C593.075 41.0921 595.212 35.9322 595.212 30.5519V10.2653H554.639V30.5519Z" fill="#37474F"/>
<path d="M562.73 1.61963H586.217C586.7 1.61963 587.164 1.8117 587.506 2.15361C587.848 2.49552 588.04 2.95926 588.04 3.44279V10.8313C588.04 11.3148 587.848 11.7785 587.506 12.1204C587.164 12.4623 586.7 12.6544 586.217 12.6544H562.73C562.246 12.6544 561.782 12.4623 561.44 12.1204C561.098 11.7784 560.906 11.3147 560.906 10.8311V3.44292C560.906 2.95935 561.098 2.49559 561.44 2.15365C561.782 1.81172 562.246 1.61963 562.73 1.61963Z" fill="#FFD740"/>
<path style="mix-blend-mode:multiply" d="M543.873 222.576C545.505 225.476 547.899 227.873 550.796 229.507L567.206 239.006C569.562 240.331 572.221 241.028 574.925 241.028C577.629 241.028 580.287 240.331 582.644 239.006L599.053 229.507C601.95 227.873 604.345 225.476 605.976 222.576C601.441 211.221 589.254 203.086 574.925 203.086C560.595 203.086 548.408 211.221 543.873 222.576Z" fill="url(#paint10_linear_197_4061)"/>
<path d="M368.749 250.878C360.284 250.876 356.189 240.28 362.626 234.782C363.615 233.936 364.696 233.204 365.849 232.6C368.179 231.432 370.727 230.762 373.331 230.631C375.935 230.501 378.537 230.914 380.972 231.843C382.514 232.414 384.182 232.552 385.796 232.242C387.411 231.933 388.909 231.187 390.131 230.087C394.018 226.804 398.919 224.962 404.007 224.873C408.823 224.857 413.605 225.685 418.136 227.318C419.966 227.919 421.938 227.925 423.772 227.337C425.605 226.748 427.205 225.593 428.342 224.039C438.262 210.447 454.481 201.819 471.184 198.749C481.293 196.892 491.987 196.891 501.571 200.606C508.857 203.355 515.025 208.442 519.113 215.069C520.086 216.688 521.534 217.969 523.26 218.735C524.986 219.502 526.906 219.718 528.76 219.355C532.463 218.695 536.271 218.955 539.85 220.11C543.43 221.266 546.671 223.282 549.29 225.981C550.675 227.508 552.531 228.527 554.563 228.876C556.594 229.224 558.684 228.883 560.499 227.906C563.726 225.98 567.371 224.86 571.123 224.641C573.293 224.579 575.451 224.979 577.455 225.814C579.459 226.649 581.262 227.899 582.747 229.483C583.891 230.693 585.317 231.601 586.898 232.123C588.479 232.646 590.166 232.768 591.805 232.478C594.382 232.067 597.021 232.528 599.305 233.789C599.349 233.814 599.392 233.839 599.435 233.864C607.472 238.554 603.94 250.941 594.634 250.939L368.749 250.878Z" fill="#CFD8DC"/>
<path style="mix-blend-mode:multiply" d="M368.749 250.878C360.284 250.876 356.189 240.28 362.626 234.782C363.615 233.936 364.696 233.204 365.849 232.6C368.179 231.432 370.727 230.762 373.331 230.631C375.935 230.501 378.537 230.914 380.972 231.843C382.514 232.414 384.182 232.552 385.796 232.242C387.411 231.933 388.909 231.187 390.131 230.087C394.018 226.804 398.919 224.962 404.007 224.873C408.823 224.857 413.605 225.685 418.136 227.318C419.966 227.919 421.938 227.925 423.772 227.337C425.605 226.748 427.205 225.593 428.342 224.039C438.262 210.447 454.481 201.819 471.184 198.749C481.293 196.892 491.987 196.891 501.571 200.606C508.857 203.355 515.025 208.442 519.113 215.069C520.086 216.688 521.534 217.969 523.26 218.735C524.986 219.502 526.906 219.718 528.76 219.355C532.463 218.695 536.271 218.955 539.85 220.11C543.43 221.266 546.671 223.282 549.29 225.981C550.675 227.508 552.531 228.527 554.563 228.876C556.594 229.224 558.684 228.883 560.499 227.906C563.726 225.98 567.371 224.86 571.123 224.641C573.293 224.579 575.451 224.979 577.455 225.814C579.459 226.649 581.262 227.899 582.747 229.483C583.891 230.693 585.317 231.601 586.898 232.123C588.479 232.646 590.166 232.768 591.805 232.478C594.382 232.067 597.021 232.528 599.305 233.789C599.349 233.814 599.392 233.839 599.435 233.864C607.472 238.554 603.94 250.941 594.634 250.939L368.749 250.878Z" fill="url(#paint11_linear_197_4061)"/>
<path d="M354.492 241.266H608.883C609.376 241.266 609.865 241.363 610.321 241.552C610.777 241.741 611.191 242.017 611.54 242.366C611.889 242.715 612.166 243.129 612.355 243.585C612.543 244.041 612.641 244.53 612.641 245.023V254.913C612.641 255.406 612.543 255.895 612.355 256.351C612.166 256.807 611.889 257.221 611.54 257.57C611.191 257.919 610.777 258.195 610.321 258.384C609.865 258.573 609.376 258.67 608.883 258.67H354.492C353.999 258.67 353.51 258.573 353.054 258.384C352.598 258.195 352.184 257.919 351.835 257.57C351.486 257.221 351.209 256.807 351.02 256.351C350.832 255.895 350.734 255.406 350.734 254.913V245.023C350.734 244.027 351.13 243.071 351.835 242.366C352.54 241.662 353.495 241.266 354.492 241.266Z" fill="#455A64"/>
<path d="M40.818 161.236L30.123 161.256L30.3319 273.01L41.0269 272.99L40.818 161.236Z" fill="#37474F"/>
<path d="M22.4609 268.351L22.4633 269.579C22.465 270.493 22.8296 271.368 23.4769 272.013C24.1241 272.658 25.001 273.019 25.9146 273.018L45.523 272.981C46.4366 272.979 47.3122 272.615 47.957 271.967C48.6019 271.32 48.9632 270.443 48.9615 269.529L48.9592 268.302L22.4609 268.351Z" fill="#37474F"/>
<path d="M41.0483 263.176L30.3528 263.197L22.4609 268.352L48.9587 268.302L41.0483 263.176Z" fill="#455A64"/>
<path style="mix-blend-mode:multiply" d="M41.0454 263.177L40.7805 161.236L36.8418 161.243L37.1067 263.184L40.9262 268.317L40.9285 269.545C40.9302 270.459 40.5689 271.336 39.924 271.983C39.2792 272.63 38.4036 272.995 37.49 272.996L45.5205 272.981C46.4342 272.98 47.3097 272.615 47.9546 271.968C48.5994 271.321 48.9607 270.444 48.959 269.53L48.9568 268.302L41.0454 263.177Z" fill="url(#paint12_linear_197_4061)"/>
<path d="M48.2726 148.358C48.2678 145.814 47.5088 143.329 46.0915 141.216C44.6741 139.104 42.6622 137.459 40.31 136.489C37.9578 135.52 35.371 135.27 32.8768 135.771C30.3826 136.272 28.0929 137.502 26.2974 139.304C24.5018 141.106 23.281 143.4 22.7894 145.897C22.2977 148.393 22.5573 150.978 23.5352 153.327C24.5132 155.676 26.1656 157.681 28.2835 159.091C30.4014 160.5 32.8898 161.25 35.4338 161.245C37.123 161.242 38.795 160.906 40.3544 160.257C41.9138 159.608 43.33 158.658 44.5222 157.461C45.7144 156.264 46.6592 154.844 47.3027 153.283C47.9462 151.721 48.2758 150.048 48.2726 148.358Z" fill="#EB1320"/>
<g style="mix-blend-mode:soft-light" opacity="0.5">
<path d="M32.4771 142.087C32.478 142.567 32.3366 143.036 32.0706 143.436C31.8047 143.835 31.4262 144.147 30.9831 144.332C30.54 144.516 30.0521 144.565 29.5811 144.472C29.1101 144.38 28.6772 144.149 28.3372 143.811C27.9971 143.472 27.7651 143.04 27.6706 142.569C27.576 142.098 27.6232 141.61 27.806 141.167C27.9889 140.723 28.2992 140.343 28.6979 140.076C29.0965 139.808 29.5654 139.665 30.0455 139.664C30.6891 139.663 31.307 139.917 31.763 140.372C32.219 140.826 32.4759 141.443 32.4771 142.087Z" fill="white"/>
</g>
<path style="mix-blend-mode:multiply" d="M35.4009 161.244H35.4691C37.712 161.236 39.9138 160.641 41.8556 159.518C43.7973 158.395 45.4114 156.784 46.5373 154.844C47.6633 152.904 48.262 150.703 48.2739 148.46C48.2858 146.217 47.7104 144.01 46.6051 142.059L29.1211 159.596C31.0378 160.676 33.2007 161.244 35.4009 161.244Z" fill="url(#paint13_linear_197_4061)"/>
<path d="M630.425 164.66L620.049 164.679L620.249 271.909L630.626 271.89L630.425 164.66Z" fill="#37474F"/>
<path d="M612.613 267.389L612.616 268.581C612.617 269.467 612.971 270.316 613.599 270.942C614.227 271.568 615.078 271.918 615.964 271.917L634.988 271.881C635.875 271.879 636.724 271.526 637.35 270.898C637.975 270.27 638.326 269.419 638.324 268.532L638.322 267.341L612.613 267.389Z" fill="#37474F"/>
<path d="M630.647 262.37L620.27 262.388L612.613 267.39L638.322 267.342L630.647 262.37Z" fill="#455A64"/>
<path style="mix-blend-mode:multiply" d="M630.772 262.369L630.515 164.66L626.693 164.667L626.95 262.376L630.656 267.356L630.658 268.547C630.659 268.986 630.573 269.421 630.406 269.827C630.239 270.233 629.994 270.601 629.684 270.912C629.374 271.223 629.006 271.47 628.601 271.639C628.196 271.808 627.761 271.895 627.322 271.896L635.113 271.881C636 271.88 636.849 271.526 637.475 270.898C638.101 270.27 638.451 269.419 638.45 268.533L638.447 267.341L630.772 262.369Z" fill="url(#paint14_linear_197_4061)"/>
<path d="M637.654 152.167C637.65 149.698 636.913 147.287 635.538 145.237C634.163 143.188 632.211 141.592 629.929 140.651C627.647 139.711 625.137 139.469 622.717 139.955C620.297 140.441 618.076 141.634 616.334 143.382C614.592 145.131 613.408 147.356 612.931 149.778C612.454 152.2 612.705 154.709 613.654 156.987C614.603 159.266 616.206 161.212 618.261 162.579C620.316 163.947 622.73 164.674 625.198 164.669C626.837 164.666 628.459 164.341 629.972 163.711C631.485 163.081 632.859 162.159 634.016 160.998C635.172 159.837 636.089 158.459 636.713 156.944C637.338 155.429 637.657 153.805 637.654 152.167Z" fill="#EB1320"/>
<path style="mix-blend-mode:multiply" d="M625.167 164.67H625.233C627.409 164.662 629.545 164.085 631.429 162.995C633.313 161.906 634.879 160.342 635.971 158.46C637.064 156.578 637.645 154.443 637.656 152.267C637.668 150.091 637.109 147.95 636.037 146.056L619.074 163.071C620.934 164.119 623.032 164.67 625.167 164.67Z" fill="url(#paint15_linear_197_4061)"/>
<g style="mix-blend-mode:soft-light" opacity="0.5">
<path d="M623.413 146.079C623.414 146.545 623.276 147.001 623.018 147.388C622.76 147.776 622.393 148.079 621.963 148.258C621.533 148.437 621.06 148.484 620.603 148.394C620.146 148.304 619.726 148.081 619.396 147.752C619.066 147.423 618.841 147.004 618.749 146.547C618.658 146.091 618.703 145.617 618.881 145.187C619.058 144.756 619.359 144.388 619.746 144.128C620.133 143.869 620.588 143.73 621.054 143.729C621.678 143.728 622.277 143.975 622.72 144.416C623.162 144.856 623.411 145.455 623.413 146.079Z" fill="white"/>
</g>
<path d="M639.957 164.67L20.8027 165.825L20.8464 189.223L640.001 188.067L639.957 164.67Z" fill="#FFD740"/>
<path d="M47.4835 165.772L24.1238 189.219L20.8483 189.226L20.8242 175.948L30.9371 165.804L47.4835 165.772Z" fill="#263238"/>
<path d="M78.5049 165.714L55.1382 189.162L38.5918 189.193L61.9571 165.746L78.5049 165.714Z" fill="#263238"/>
<path d="M109.517 165.658L86.1589 189.104L69.6055 189.135L92.9708 165.688L109.517 165.658Z" fill="#263238"/>
<path d="M140.54 165.6L117.173 189.046L100.627 189.077L123.994 165.63L140.54 165.6Z" fill="#263238"/>
<path d="M171.558 165.542L148.199 188.988L131.646 189.019L155.012 165.573L171.558 165.542Z" fill="#263238"/>
<path d="M202.576 165.484L179.21 188.93L162.664 188.961L186.029 165.515L202.576 165.484Z" fill="#263238"/>
<path d="M233.597 165.426L210.237 188.873L193.684 188.903L217.05 165.457L233.597 165.426Z" fill="#263238"/>
<path d="M264.617 165.368L241.251 188.815L224.705 188.846L248.07 165.399L264.617 165.368Z" fill="#263238"/>
<path d="M295.634 165.311L272.276 188.757L255.723 188.788L279.088 165.341L295.634 165.311Z" fill="#263238"/>
<path d="M326.655 165.253L303.289 188.699L286.742 188.73L310.109 165.284L326.655 165.253Z" fill="#263238"/>
<path d="M357.675 165.194L334.316 188.641L317.764 188.672L341.129 165.226L357.675 165.194Z" fill="#263238"/>
<path d="M388.695 165.136L365.33 188.582L348.783 188.614L372.149 165.167L388.695 165.136Z" fill="#263238"/>
<path d="M419.716 165.078L396.357 188.524L379.805 188.555L403.17 165.109L419.716 165.078Z" fill="#263238"/>
<path d="M450.734 165.02L427.369 188.468L410.822 188.497L434.188 165.051L450.734 165.02Z" fill="#263238"/>
<path d="M481.755 164.963L458.395 188.41L441.842 188.441L465.209 164.993L481.755 164.963Z" fill="#263238"/>
<path d="M512.775 164.906L489.41 188.352L472.863 188.383L496.229 164.936L512.775 164.906Z" fill="#263238"/>
<path d="M543.795 164.848L520.436 188.294L503.883 188.325L527.248 164.879L543.795 164.848Z" fill="#263238"/>
<path d="M574.814 164.79L551.447 188.236L534.9 188.267L558.267 164.821L574.814 164.79Z" fill="#263238"/>
<path d="M605.832 164.731L582.472 188.179L565.92 188.209L589.285 164.763L605.832 164.731Z" fill="#263238"/>
<path d="M636.853 164.673L613.488 188.121L596.941 188.152L620.307 164.705L636.853 164.673Z" fill="#263238"/>
<path d="M639.979 176.035L640.001 188.067L627.955 188.089L639.979 176.035Z" fill="#263238"/>
<path style="mix-blend-mode:multiply" d="M639.977 176.203L20.8281 177.358L20.8503 189.224L639.999 188.069L639.977 176.203Z" fill="url(#paint16_linear_197_4061)"/>
<defs>
<linearGradient id="paint0_linear_197_4061" x1="351.452" y1="249.141" x2="351.452" y2="-104.498" gradientUnits="userSpaceOnUse">
<stop offset="0.00065" stop-color="white" stop-opacity="0"/>
<stop offset="1" stop-color="#90A4AE"/>
</linearGradient>
<linearGradient id="paint1_linear_197_4061" x1="301.379" y1="225" x2="330.445" y2="229.044" gradientUnits="userSpaceOnUse">
<stop offset="0.00065" stop-color="white" stop-opacity="0"/>
<stop offset="1"/>
</linearGradient>
<linearGradient id="paint2_linear_197_4061" x1="324.848" y1="222.616" x2="261.409" y2="234.242" gradientUnits="userSpaceOnUse">
<stop offset="0.00065" stop-color="white" stop-opacity="0"/>
<stop offset="1" stop-color="white"/>
</linearGradient>
<linearGradient id="paint3_linear_197_4061" x1="153.784" y1="200.283" x2="153.784" y2="246.721" gradientUnits="userSpaceOnUse">
<stop offset="0.00099" stop-color="white" stop-opacity="0"/>
<stop offset="1" stop-color="#B0BEC5"/>
</linearGradient>
<linearGradient id="paint4_linear_197_4061" x1="297.966" y1="236.582" x2="240.589" y2="236.582" gradientUnits="userSpaceOnUse">
<stop offset="0.00099" stop-color="white" stop-opacity="0"/>
<stop offset="1" stop-color="#B0BEC5"/>
</linearGradient>
<linearGradient id="paint5_linear_197_4061" x1="129.981" y1="172.541" x2="129.981" y2="228.182" gradientUnits="userSpaceOnUse">
<stop offset="0.00099" stop-color="white" stop-opacity="0"/>
<stop offset="1" stop-color="#B0BEC5"/>
</linearGradient>
<linearGradient id="paint6_linear_197_4061" x1="274.162" y1="197.258" x2="216.784" y2="197.258" gradientUnits="userSpaceOnUse">
<stop offset="0.00099" stop-color="white" stop-opacity="0"/>
<stop offset="1" stop-color="#B0BEC5"/>
</linearGradient>
<linearGradient id="paint7_linear_197_4061" x1="249.534" y1="236.582" x2="192.157" y2="236.582" gradientUnits="userSpaceOnUse">
<stop offset="0.00099" stop-color="white" stop-opacity="0"/>
<stop offset="1" stop-color="#B0BEC5"/>
</linearGradient>
<linearGradient id="paint8_linear_197_4061" x1="579.964" y1="189.559" x2="579.964" y2="157.08" gradientUnits="userSpaceOnUse">
<stop offset="0.00065" stop-color="white" stop-opacity="0"/>
<stop offset="1"/>
</linearGradient>
<linearGradient id="paint9_linear_197_4061" x1="547.996" y1="117.815" x2="612.786" y2="126.581" gradientUnits="userSpaceOnUse">
<stop offset="0.00065" stop-color="white" stop-opacity="0"/>
<stop offset="1"/>
</linearGradient>
<linearGradient id="paint10_linear_197_4061" x1="575.192" y1="224.935" x2="569.507" y2="174.802" gradientUnits="userSpaceOnUse">
<stop offset="0.00065" stop-color="white" stop-opacity="0"/>
<stop offset="1"/>
</linearGradient>
<linearGradient id="paint11_linear_197_4061" x1="506.302" y1="212.789" x2="441.627" y2="288.744" gradientUnits="userSpaceOnUse">
<stop offset="0.00099" stop-color="white" stop-opacity="0"/>
<stop offset="1" stop-color="#B0BEC5"/>
</linearGradient>
<linearGradient id="paint12_linear_197_4061" x1="7.47345" y1="203.73" x2="95.276" y2="240.85" gradientUnits="userSpaceOnUse">
<stop offset="0.00065" stop-color="white" stop-opacity="0"/>
<stop offset="1"/>
</linearGradient>
<linearGradient id="paint13_linear_197_4061" x1="38.6653" y1="137.242" x2="38.7152" y2="163.491" gradientUnits="userSpaceOnUse">
<stop offset="0.00065" stop-color="white" stop-opacity="0"/>
<stop offset="1"/>
</linearGradient>
<linearGradient id="paint14_linear_197_4061" x1="598.497" y1="205.417" x2="682.922" y2="241.108" gradientUnits="userSpaceOnUse">
<stop offset="0.00065" stop-color="white" stop-opacity="0"/>
<stop offset="1"/>
</linearGradient>
<linearGradient id="paint15_linear_197_4061" x1="628.333" y1="141.383" x2="628.381" y2="166.85" gradientUnits="userSpaceOnUse">
<stop offset="0.00065" stop-color="white" stop-opacity="0"/>
<stop offset="1"/>
</linearGradient>
<linearGradient id="paint16_linear_197_4061" x1="205.621" y1="7.80925" x2="396.418" y2="275.279" gradientUnits="userSpaceOnUse">
<stop offset="0.00065" stop-color="white" stop-opacity="0"/>
<stop offset="1"/>
</linearGradient>
</defs>
</svg>
