<svg width="30" height="30" viewBox="0 0 30 30" fill="none" xmlns="http://www.w3.org/2000/svg">
<path d="M25.1927 19.966L27.3979 19.9528C27.8182 19.9503 28.161 20.289 28.1636 20.7094L28.1897 25.0881C28.1922 25.5084 27.8535 25.8512 27.4331 25.8537L25.2279 25.8669C24.8076 25.8694 24.4648 25.5307 24.4622 25.1103L24.4361 20.7316C24.4336 20.3113 24.7723 19.9685 25.1927 19.966ZM2.7525 20.0995L4.95768 20.0863C5.37799 20.0839 5.72081 20.4225 5.72336 20.8429L5.7494 25.2217C5.75188 25.642 5.41321 25.9848 4.99282 25.9874L2.78764 26.0005C2.36732 26.003 2.02451 25.6644 2.02195 25.244L1.99584 20.8653C1.99336 20.4449 2.33211 20.1021 2.7525 20.0995ZM27.6994 9.30138C27.6106 9.30977 27.5281 9.35123 27.4684 9.41754C27.4087 9.48385 27.3761 9.57017 27.3771 9.65939C27.399 9.83384 27.3563 10.0103 27.257 10.1554C27.1577 10.3005 27.0087 10.4042 26.8382 10.447L26.2896 10.4504L26.5713 11.2726C26.5713 11.2726 30.1033 11.2513 29.9977 10.0912C29.9158 9.19085 28.3828 9.23584 27.6994 9.30138ZM2.30058 9.30138C2.38941 9.30977 2.47185 9.35123 2.53155 9.41754C2.59126 9.48385 2.62387 9.57017 2.62293 9.65939C2.60101 9.83384 2.64373 10.0103 2.74301 10.1554C2.8423 10.3005 2.99128 10.4042 3.16183 10.447L3.71043 10.4504L3.42872 11.2726C3.42872 11.2726 -0.103319 11.2513 0.00232344 10.0912C0.0841891 9.19085 1.61721 9.23584 2.30058 9.30138Z" fill="#2F4859"/>
<path d="M29.2112 16.1907C29.1453 15.3279 28.8958 14.4891 28.4795 13.7305L26.9907 11.0001C26.9907 11.0001 24.3471 5.0414 23.2457 4.56721C22.1809 4.10867 15.384 4.00559 14.9336 3.99927H14.9087C14.4584 4.01116 7.66332 4.19543 6.60411 4.66661C5.5084 5.15381 2.93467 11.1426 2.93467 11.1426L1.47983 13.8909C1.07284 14.6543 0.833398 15.4959 0.7775 16.3593C0.675183 18.2664 0.880646 20.1776 1.386 22.0195C1.50177 22.4419 1.75407 22.8141 2.10356 23.0781C2.45305 23.3421 2.88008 23.483 3.31804 23.4789L15.0245 23.4111H15.0494L26.7558 23.3415C27.1937 23.3403 27.6189 23.1943 27.9652 22.9261C28.3114 22.658 28.5592 22.2828 28.6699 21.8591C29.1538 20.011 29.3366 18.097 29.2112 16.1907Z" fill="#FE7058"/>
<path d="M9.3068 19.7314L20.7145 19.6633C20.8125 19.6628 20.9067 19.7011 20.9765 19.77C21.0462 19.8389 21.0857 19.9327 21.0863 20.0307L21.0979 21.9731C21.0984 22.0711 21.0601 22.1653 20.9912 22.2351C20.9223 22.3048 20.8285 22.3443 20.7305 22.3449L9.32283 22.413C9.22482 22.4136 9.13059 22.3752 9.06087 22.3063C8.99115 22.2374 8.95164 22.1437 8.95105 22.0456L8.93946 20.1032C8.93888 20.0052 8.97725 19.911 9.04614 19.8413C9.11503 19.7715 9.20879 19.732 9.3068 19.7314Z" fill="#3A556A"/>
<path d="M23.459 5.46599C23.4007 5.33887 23.3077 5.23077 23.1907 5.15407C23.0737 5.07738 22.9375 5.0352 22.7976 5.03236L14.9973 4.87231H14.9728L7.17469 5.12544C7.03496 5.13 6.89934 5.17383 6.78335 5.25189C6.66737 5.32995 6.5757 5.43909 6.51886 5.56682L4.28125 10.5999L15.0058 10.5359H15.0303L25.7564 10.4718L23.459 5.46599Z" fill="#2F4859"/>
<path d="M25.9979 19.3352C25.246 19.3396 24.64 19.9526 24.6444 20.7045C24.6487 21.4564 25.2617 22.0625 26.0137 22.0581C26.7656 22.0537 27.3716 21.4407 27.3672 20.6888V20.6881C27.3625 19.9365 26.7496 19.3309 25.9979 19.3352ZM4.13642 19.4659C3.38451 19.4704 2.77864 20.0836 2.78323 20.8355C2.78774 21.5874 3.40098 22.1933 4.1529 22.1887C4.90481 22.1842 5.5106 21.571 5.50609 20.8191C5.5015 20.0672 4.88834 19.4613 4.13642 19.4659Z" fill="#EBF0F3"/>
<path d="M9.90234 16.2786H19.8316V17.518H9.90234V16.2786Z" fill="#3A556A"/>
<path d="M27.9084 14.3299C27.8999 14.2552 27.8757 14.1832 27.8372 14.1186C27.7987 14.0541 27.7469 13.9985 27.6852 13.9556C27.6235 13.9126 27.5534 13.8834 27.4795 13.8697C27.4056 13.856 27.3297 13.8582 27.2567 13.8762L22.716 14.9865C22.6485 15.003 22.5849 15.0328 22.5289 15.074C22.4729 15.1152 22.4256 15.167 22.3896 15.2265L21.4901 16.7153C21.4417 16.7953 21.4155 16.8868 21.4141 16.9803C21.4127 17.0738 21.4362 17.166 21.4822 17.2475C21.5282 17.3289 21.5949 17.3967 21.6757 17.4439C21.7565 17.491 21.8483 17.5159 21.9418 17.5159H26.3783C26.482 17.5166 26.5837 17.487 26.6708 17.4306C27.7174 16.7375 28.045 15.6579 27.9084 14.3299Z" fill="#E1E6E9"/>
<path d="M25.7559 14.7511C25.2069 14.7735 24.78 15.2368 24.8025 15.7858C24.825 16.3347 25.2882 16.7616 25.8372 16.7391C26.3861 16.7167 26.813 16.2536 26.7906 15.7046C26.768 15.1557 26.3049 14.7288 25.7559 14.7511ZM23.6482 15.7005C23.2306 15.7173 22.9057 16.0694 22.9225 16.487C22.9393 16.9045 23.2914 17.2294 23.7089 17.2126C24.1265 17.1958 24.4514 16.8437 24.4346 16.4262V16.4256C24.4175 16.0083 24.0655 15.6837 23.6482 15.7005Z" fill="#BDBEC1"/>
<path d="M2.09188 14.3299C2.10033 14.2552 2.1246 14.1832 2.16309 14.1186C2.20157 14.0541 2.25338 13.9985 2.31506 13.9556C2.37674 13.9126 2.44686 13.8834 2.52075 13.8697C2.59465 13.856 2.67061 13.8582 2.74357 13.8762L7.28425 14.9865C7.35177 15.003 7.41535 15.0328 7.47136 15.074C7.52737 15.1152 7.57471 15.167 7.61066 15.2265L8.51021 16.7153C8.55855 16.7953 8.58476 16.8868 8.58614 16.9803C8.58752 17.0738 8.56403 17.166 8.51807 17.2475C8.47211 17.3289 8.40533 17.3967 8.32457 17.4439C8.24381 17.491 8.15196 17.5159 8.05844 17.5159H3.62197C3.51822 17.5166 3.41652 17.487 3.32942 17.4306C2.28277 16.7375 1.95531 15.6579 2.09188 14.3299Z" fill="#E1E6E9"/>
<path d="M4.24458 14.7511C4.79356 14.7735 5.22042 15.2368 5.19792 15.7858C5.1755 16.3347 4.71222 16.7616 4.16324 16.7391C3.61434 16.7167 3.18748 16.2536 3.20982 15.7046C3.23247 15.1557 3.6956 14.7288 4.24458 14.7511ZM6.35232 15.7005C6.76985 15.7173 7.09475 16.0694 7.07798 16.487C7.0612 16.9045 6.70905 17.2294 6.29152 17.2126C5.87399 17.1958 5.54909 16.8437 5.56587 16.4262V16.4256C5.58295 16.0083 5.93494 15.6837 6.35232 15.7005Z" fill="#BDBEC1"/>
</svg>
