<svg width="30" height="30" viewBox="0 0 30 30" fill="none" xmlns="http://www.w3.org/2000/svg">
<path d="M23.9062 10.3124C23.9061 8.75792 23.4991 7.23052 22.7257 5.88207C21.9523 4.53362 20.8394 3.41109 19.4976 2.62606C18.1559 1.84104 16.6321 1.42087 15.0776 1.40732C13.5232 1.39377 11.9922 1.78732 10.637 2.54884C9.28183 3.31036 8.14954 4.41332 7.35273 5.74809C6.55592 7.08285 6.12235 8.60293 6.09512 10.1572C6.06788 11.7115 6.44793 13.2458 7.19749 14.6077C7.94705 15.9695 9.04 17.1115 10.3677 17.92C10.6386 18.0874 10.862 18.3216 11.0165 18.6001C11.171 18.8786 11.2514 19.1921 11.25 19.5105V22.0312H18.75V19.5103C18.7506 19.1885 18.8338 18.8722 18.9917 18.5917C19.1495 18.3112 19.3766 18.0759 19.6514 17.9083C20.9518 17.1126 22.026 15.9962 22.771 14.6662C23.5161 13.3361 23.907 11.8369 23.9062 10.3124Z" fill="#FFE76C"/>
<path d="M22.0313 11.25C21.9069 11.25 21.7877 11.2006 21.6998 11.1127C21.6119 11.0248 21.5625 10.9056 21.5625 10.7812V10.3125C21.5605 8.57262 20.8685 6.90457 19.6382 5.67429C18.4079 4.44401 16.7399 3.75197 15 3.75H14.5313C14.4069 3.75 14.2877 3.70061 14.1998 3.61271C14.1119 3.5248 14.0625 3.40557 14.0625 3.28125C14.0625 3.15693 14.1119 3.0377 14.1998 2.94979C14.2877 2.86189 14.4069 2.8125 14.5313 2.8125H15C16.9884 2.81475 18.8948 3.60565 20.3008 5.01168C21.7069 6.41772 22.4978 8.32407 22.5 10.3125V10.7812C22.5 10.9056 22.4506 11.0248 22.3627 11.1127C22.2748 11.2006 22.1556 11.25 22.0313 11.25ZM16.875 13.5938C16.5022 13.5942 16.1447 13.7425 15.8811 14.0061C15.6175 14.2697 15.4692 14.6272 15.4688 15V15.4688H14.5313V15C14.5313 14.7219 14.4488 14.45 14.2943 14.2187C14.1397 13.9875 13.9201 13.8072 13.6631 13.7008C13.4062 13.5944 13.1234 13.5665 12.8507 13.6208C12.5779 13.675 12.3273 13.809 12.1306 14.0056C11.934 14.2023 11.8 14.4529 11.7458 14.7257C11.6915 14.9984 11.7194 15.2812 11.8258 15.5381C11.9322 15.7951 12.1125 16.0147 12.3437 16.1693C12.575 16.3238 12.8469 16.4062 13.125 16.4062H13.5938V20.625C13.5938 20.7493 13.6431 20.8685 13.731 20.9565C13.819 21.0444 13.9382 21.0938 14.0625 21.0938H15.9375C16.0618 21.0938 16.181 21.0444 16.269 20.9565C16.3569 20.8685 16.4063 20.7493 16.4063 20.625V16.4062H16.875C17.248 16.4062 17.6056 16.2581 17.8694 15.9944C18.1331 15.7306 18.2813 15.373 18.2813 15C18.2813 14.627 18.1331 14.2694 17.8694 14.0056C17.6056 13.7419 17.248 13.5938 16.875 13.5938ZM12.6563 15C12.6563 14.8757 12.7056 14.7565 12.7935 14.6685C12.8815 14.5806 13.0007 14.5312 13.125 14.5312C13.2493 14.5312 13.3685 14.5806 13.4565 14.6685C13.5444 14.7565 13.5938 14.8757 13.5938 15V15.4688H13.125C13.0007 15.4686 12.8816 15.4192 12.7937 15.3313C12.7058 15.2434 12.6564 15.1243 12.6563 15ZM15.4688 20.1562H14.5313V16.4062H15.4688V20.1562ZM16.875 15.4688H16.4063V15C16.4063 14.9073 16.4337 14.8167 16.4852 14.7396C16.5368 14.6625 16.61 14.6024 16.6956 14.5669C16.7813 14.5315 16.8755 14.5222 16.9664 14.5403C17.0574 14.5583 17.1409 14.603 17.2065 14.6685C17.272 14.7341 17.3167 14.8176 17.3347 14.9086C17.3528 14.9995 17.3435 15.0937 17.3081 15.1794C17.2726 15.265 17.2125 15.3382 17.1354 15.3898C17.0583 15.4413 16.9677 15.4688 16.875 15.4688Z" fill="#FFB632"/>
<path d="M18.75 23.9062H11.25C11.0014 23.9062 10.7629 23.8075 10.5871 23.6317C10.4113 23.4558 10.3125 23.2174 10.3125 22.9688C10.3125 22.7201 10.4113 22.4817 10.5871 22.3058C10.7629 22.13 11.0014 22.0312 11.25 22.0312H18.75C18.9986 22.0312 19.2371 22.13 19.4129 22.3058C19.5887 22.4817 19.6875 22.7201 19.6875 22.9688C19.6875 23.2174 19.5887 23.4558 19.4129 23.6317C19.2371 23.8075 18.9986 23.9062 18.75 23.9062Z" fill="#DADCDE"/>
<path d="M18.75 25.7812H11.25C11.0014 25.7812 10.7629 25.6825 10.5871 25.5067C10.4113 25.3308 10.3125 25.0924 10.3125 24.8438C10.3125 24.5951 10.4113 24.3567 10.5871 24.1808C10.7629 24.005 11.0014 23.9062 11.25 23.9062H18.75C18.9986 23.9062 19.2371 24.005 19.4129 24.1808C19.5887 24.3567 19.6875 24.5951 19.6875 24.8438C19.6875 25.0924 19.5887 25.3308 19.4129 25.5067C19.2371 25.6825 18.9986 25.7812 18.75 25.7812Z" fill="#E9EEF2"/>
<path d="M11.25 25.7812H18.75V26.7188C18.75 27.216 18.5525 27.6929 18.2008 28.0446C17.8492 28.3962 17.3723 28.5938 16.875 28.5938H13.125C12.6277 28.5938 12.1508 28.3962 11.7992 28.0446C11.4475 27.6929 11.25 27.216 11.25 26.7188V25.7812Z" fill="#DADCDE"/>
<path d="M18.75 22.0312H11.25C11.0014 22.0312 10.7629 21.9325 10.5871 21.7567C10.4113 21.5808 10.3125 21.3424 10.3125 21.0938C10.3125 20.8451 10.4113 20.6067 10.5871 20.4308C10.7629 20.255 11.0014 20.1562 11.25 20.1562H18.75C18.9986 20.1562 19.2371 20.255 19.4129 20.4308C19.5887 20.6067 19.6875 20.8451 19.6875 21.0938C19.6875 21.3424 19.5887 21.5808 19.4129 21.7567C19.2371 21.9325 18.9986 22.0312 18.75 22.0312Z" fill="#E9EEF2"/>
</svg>
