<svg width="30" height="30" viewBox="0 0 30 30" fill="none" xmlns="http://www.w3.org/2000/svg">
<g clip-path="url(#clip0_401_730)">
<path d="M16.887 2.38741L20.2419 2.38741C21.0815 3.22702 21.5532 4.36577 21.5532 5.55316C21.5532 6.74054 21.0815 7.8793 20.2419 8.71891L17.3658 8.71891" fill="#4C4C4C"/>
<path d="M16.2848 9.51089V11.3256C16.2848 11.5031 16.2499 11.6787 16.182 11.8426C16.1141 12.0065 16.0145 12.1555 15.8891 12.2809C15.7636 12.4064 15.6147 12.5059 15.4508 12.5738C15.2869 12.6417 15.1112 12.6766 14.9338 12.6766H13.9105L12.3276 11.0938L15.0977 8.32373L16.2848 9.51089Z" fill="#383838"/>
<path d="M15.0975 24.1521L15.0975 23.1288C15.0975 22.9514 15.0625 22.7757 14.9946 22.6118C14.9267 22.4479 14.8272 22.2989 14.7017 22.1735C14.5763 22.048 14.4274 21.9485 14.2635 21.8806C14.0996 21.8127 13.9239 21.7778 13.7465 21.7778H13.2827C13.1053 21.7778 12.9296 21.7428 12.7657 21.6749C12.6018 21.607 12.4529 21.5075 12.3274 21.3821C12.202 21.2566 12.1025 21.1077 12.0346 20.9438C11.9667 20.7799 11.9317 20.6042 11.9317 20.4268V14.6549L13.9103 12.6763V10.8615C13.9103 10.6841 13.9453 10.5084 14.0132 10.3445C14.0811 10.1806 14.1806 10.0317 14.306 9.90623C14.4315 9.78078 14.5804 9.68126 14.7443 9.61336C14.9082 9.54547 15.0839 9.51052 15.2613 9.51051H17.0761L17.1457 9.3356C17.6186 8.15384 17.8222 6.88154 17.7417 5.61122C17.6612 4.3409 17.2986 3.10449 16.6803 1.99186L4.86498 1.99186C3.81548 1.99193 2.80899 2.40885 2.06685 3.15092C1.32474 3.89303 0.907831 4.89955 0.907831 5.94905C0.907831 6.99855 1.32474 8.00506 2.06685 8.74717C2.80899 9.48924 3.81548 9.90616 4.86498 9.90623L5.95953 9.90623C6.23619 9.90622 6.50152 10.0161 6.69715 10.2117C6.84138 10.356 6.94011 10.5394 6.98112 10.7392C7.02212 10.9391 7.00361 11.1465 6.92786 11.336C6.05083 13.5285 5.60023 15.8683 5.60022 18.2298L5.60022 20.1949L4.01735 24.1521H15.0975Z" fill="#EC8329"/>
<path d="M13.746 21.7778L13.2823 21.7778C13.1048 21.7778 12.9292 21.7429 12.7652 21.675C12.6013 21.6071 12.4524 21.5076 12.327 21.3821C12.2015 21.2567 12.102 21.1078 12.0341 20.9438C11.9662 20.7799 11.9313 20.6043 11.9313 20.4268L11.9313 14.6549L13.9099 12.6763L13.9099 10.8615C13.9099 10.6841 13.9448 10.5084 14.0127 10.3445C14.0806 10.1806 14.1801 10.0317 14.3055 9.90624C14.431 9.78079 14.5799 9.68128 14.7438 9.61338C14.9078 9.54549 15.0834 9.51055 15.2608 9.51056L17.0756 9.51056L17.1453 9.33565C17.6181 8.15388 17.8217 6.88159 17.7412 5.61127C17.6607 4.34095 17.2982 3.10453 16.6799 1.99191L4.86453 1.99191C4.10455 1.99254 3.36085 2.21223 2.72251 2.62466C2.33867 3.2224 2.12285 3.91245 2.09768 4.62237C2.07252 5.3323 2.23895 6.0359 2.57949 6.65932C2.92004 7.28273 3.42215 7.80297 4.0331 8.1654C4.64406 8.52784 5.34132 8.7191 6.05169 8.71912L7.14624 8.71912C7.31664 8.71908 7.48445 8.7608 7.63499 8.84063C7.78553 8.92046 7.9142 9.03598 8.00976 9.17706C8.10531 9.31814 8.16483 9.4805 8.1831 9.64991C8.20137 9.81933 8.17784 9.99064 8.11457 10.1489C7.23754 12.3414 6.78694 14.6812 6.78693 17.0427L6.78693 19.0078C6.61179 19.4456 6.54661 19.9197 6.59711 20.3885C6.6476 20.8574 6.81223 21.3067 7.07658 21.6971C7.34094 22.0876 7.69696 22.4074 8.1135 22.6284C8.53004 22.8494 8.9944 22.965 9.46594 22.965L15.0808 22.9646C15.0435 22.6371 14.8867 22.3349 14.6404 22.1159C14.3941 21.8969 14.0756 21.7765 13.746 21.7778Z" fill="#F79B31"/>
<path d="M4.01735 24.1521H15.8889V28.3412C15.8889 28.5186 15.8539 28.6942 15.7861 28.8581C15.7182 29.0221 15.6186 29.171 15.4932 29.2964C15.3677 29.4219 15.2188 29.5214 15.0549 29.5893C14.891 29.6572 14.7153 29.6921 14.5379 29.6921H5.36833C5.19092 29.6921 5.01525 29.6572 4.85134 29.5893C4.68744 29.5214 4.53851 29.4219 4.41307 29.2964C4.28761 29.171 4.1881 29.0221 4.1202 28.8581C4.0523 28.6942 4.01735 28.5186 4.01735 28.3412V24.1521Z" fill="#4C4C4C"/>
<path d="M20.9937 3.38523L24.5943 3.57478C24.8541 3.83462 25.0603 4.14308 25.2009 4.48257C25.3415 4.82206 25.4139 5.18592 25.4139 5.55338C25.4139 5.92083 25.3415 6.28469 25.2009 6.62418C25.0603 6.96367 24.8541 7.27213 24.5943 7.53197H21.093" fill="#999999"/>
<path d="M25.1484 4.36621L26.9687 4.36621C27.2836 4.68106 27.4605 5.10809 27.4605 5.55336C27.4605 5.99863 27.2836 6.42566 26.9687 6.74052L25.1484 6.74052" fill="#383838"/>
<path d="M5.9956 1.99171V5.55317H11.5357V1.99171" fill="#CCCCCC"/>
<path d="M5.60026 24.1521L5.60026 26.7583C5.60026 26.9357 5.6352 27.1114 5.70309 27.2753C5.77098 27.4392 5.8705 27.5881 5.99595 27.7136C6.1214 27.839 6.27033 27.9385 6.43424 28.0064C6.59815 28.0743 6.77383 28.1092 6.95125 28.1092L15.8889 28.1092L15.8889 24.1521L5.60026 24.1521ZM11.9318 14.6548L10.7446 13.4677L10.7446 9.27858C10.7446 9.10117 10.7097 8.92549 10.6418 8.76158C10.5739 8.59767 10.4744 8.44874 10.3489 8.32329C10.2235 8.19783 10.0745 8.09832 9.91063 8.03043C9.74671 7.96254 9.57104 7.9276 9.39362 7.9276L5.99598 7.9276L4.09337 9.83022C4.3475 9.8806 4.60594 9.90604 4.86502 9.90619L5.95958 9.90619C6.12997 9.90615 6.29778 9.94787 6.44832 10.0277C6.59886 10.1075 6.72754 10.2231 6.82309 10.3641C6.91864 10.5052 6.97816 10.6676 6.99643 10.837C7.0147 11.0064 6.99117 11.1777 6.9279 11.3359C6.05087 13.5285 5.60027 15.8683 5.60026 18.2297L5.60026 20.1949L11.9318 20.1949L11.9318 14.6548Z" fill="#5B5B5B"/>
<path d="M11.9318 14.6548L10.7446 13.4677V9.27858C10.7446 9.10117 10.7097 8.92549 10.6418 8.76158C10.5739 8.59767 10.4744 8.44874 10.3489 8.32329C10.2235 8.19783 10.0745 8.09832 9.91063 8.03043C9.74671 7.96254 9.57104 7.9276 9.39362 7.9276H5.99598L5.28052 8.64306C5.53466 8.69344 5.7931 8.71889 6.05217 8.71904L7.14673 8.71904C7.31713 8.71899 7.48494 8.76071 7.63548 8.84055C7.78601 8.92038 7.91469 9.03589 8.01024 9.17698C8.1058 9.31806 8.16531 9.48042 8.18359 9.64983C8.20186 9.81924 8.17833 9.99056 8.11505 10.1488C7.23803 12.3413 6.78743 14.6811 6.78742 17.0426L6.78742 19.0077C6.63648 19.3846 6.56768 19.7893 6.5856 20.1949H11.9318V14.6548Z" fill="#6D6D6D"/>
<path d="M7.18292 1.99188V3.13234C7.18257 3.29447 7.21425 3.45507 7.27613 3.60493C7.33801 3.75479 7.42888 3.89094 7.54353 4.00559C7.65817 4.12023 7.79433 4.2111 7.94418 4.27299C8.09404 4.33487 8.25464 4.36654 8.41677 4.36619H11.5358V1.99188H7.18292Z" fill="#E0E0E0"/>
<path d="M4.41329 4.20235L1.31718 4.20235C1.14352 4.55554 1.02374 4.93276 0.961828 5.32144H4.41328L4.41329 4.20235ZM4.41329 6.57666L0.961828 6.57666C1.02374 6.96534 1.14352 7.34255 1.31718 7.69575L4.41328 7.69575L4.41329 6.57666Z" fill="#5B5B5B"/>
<path d="M4.413 4.20256L2.1495 4.20256C2.09515 4.57351 2.09382 4.95031 2.14554 5.32165L4.413 5.32165L4.413 4.20256ZM4.413 6.57687L2.5468 6.57687C2.73 6.93939 2.96858 7.27116 3.25395 7.56023C3.30183 7.60811 3.35406 7.65085 3.40392 7.69596L4.413 7.69596L4.413 6.57687Z" fill="#6D6D6D"/>
<path d="M20.2407 2.38772H17.7944C19.0002 3.92587 19.204 5.08652 19.0536 5.94918C18.8969 6.83797 18.3733 7.36783 18.6579 7.92777C18.8191 8.15175 19.0267 8.33836 19.2665 8.47493C19.5063 8.6115 19.7727 8.69482 20.0476 8.71921H20.2407C21.0804 7.8796 21.552 6.74085 21.552 5.55346C21.552 4.36608 21.0804 3.22732 20.2407 2.38772Z" fill="#5B5B5B"/>
<path d="M24.5947 3.57496L22.3736 3.45822C22.5208 3.87785 22.6026 4.31762 22.6161 4.76211C22.6434 5.7154 22.0079 6.11587 22.2204 6.74071C22.3579 7.07227 22.5996 7.35008 22.909 7.53214L24.5947 7.53214C24.8546 7.27231 25.0607 6.96384 25.2013 6.62436C25.3419 6.28487 25.4143 5.92101 25.4143 5.55355C25.4143 5.18609 25.3419 4.82223 25.2013 4.48274C25.0607 4.14326 24.8546 3.83479 24.5947 3.57496Z" fill="#B3B3B3"/>
</g>
<defs>
<clipPath id="clip0_401_730">
<rect width="30" height="30" fill="white"/>
</clipPath>
</defs>
</svg>
