<svg width="30" height="30" viewBox="0 0 30 30" fill="none" xmlns="http://www.w3.org/2000/svg">
<g clip-path="url(#clip0_401_773)">
<path d="M21.5715 19.3141L10.6859 8.42765C10.5102 8.25189 10.2719 8.15313 10.0233 8.15308C9.7748 8.15313 9.53647 8.25189 9.36075 8.42765L1.68579 16.1026C-1.63736 19.4258 0.9253 27.3005 1.22846 28.1875C1.27478 28.3229 1.35145 28.4458 1.45262 28.547C1.55378 28.6482 1.67675 28.7249 1.81212 28.7712C2.35803 28.9578 5.54917 30 8.69823 30C10.6665 30 12.6186 29.5925 13.8968 28.3143L21.5715 20.6395C21.9375 20.2734 21.9375 19.6802 21.5715 19.3141Z" fill="#AFBDC4"/>
<path d="M21.5708 19.3141L10.6852 8.42764C10.6849 8.42717 10.6846 8.42717 10.684 8.42676L19.2279 16.9714C19.594 17.3374 19.594 17.9307 19.2279 18.2968L11.5533 25.9714C10.2751 27.2496 8.32301 27.6572 6.35473 27.6572C4.26521 27.6572 2.16193 27.1989 0.820312 26.8356C1.00471 27.5167 1.16502 28.0038 1.22783 28.1875C1.27413 28.3229 1.3508 28.4459 1.45197 28.547C1.55313 28.6482 1.67611 28.7249 1.81148 28.7712C2.35734 28.9579 5.54848 30 8.69754 30C10.6658 30 12.6179 29.5925 13.8961 28.3142L21.5708 20.6395C21.9369 20.2734 21.9369 19.6802 21.5708 19.3141Z" fill="#8FA3AD"/>
<path d="M21.8882 8.11076C21.4645 7.68748 20.9014 7.4541 20.3022 7.4541C19.703 7.4541 19.14 7.68748 18.7164 8.111L10.6434 16.1838C10.2197 16.6075 9.98633 17.1708 9.98633 17.7698C9.98633 18.3688 10.2197 18.932 10.6434 19.3557C11.0806 19.7929 11.6549 20.0114 12.2292 20.0114C12.8037 20.0114 13.3779 19.7929 13.8151 19.3557L21.8884 11.2827C22.7624 10.4082 22.7624 8.98539 21.8882 8.11076Z" fill="#607D8A"/>
<path d="M21.8891 8.11072C21.6571 7.87893 21.381 7.71035 21.0823 7.59961C21.3767 8.39602 21.21 9.32607 20.5715 9.96486L12.4982 18.0379C12.061 18.4751 11.4867 18.6936 10.9123 18.6936C10.6476 18.6936 10.3841 18.6417 10.1328 18.5488C10.2437 18.8477 10.4124 19.1238 10.6444 19.3558C11.0816 19.793 11.6559 20.0115 12.2302 20.0115C12.8047 20.0115 13.3789 19.793 13.8161 19.3558L21.8894 11.2828C22.7633 10.4082 22.7633 8.98535 21.8891 8.11072Z" fill="#546E7A"/>
<path d="M29.2032 2.28469L27.7161 0.797578C27.2018 0.283242 26.5181 0 25.791 0H25.7908C25.0637 0 24.3801 0.283242 23.866 0.797578L18.0378 6.62549C17.5235 7.13953 17.2402 7.82344 17.2402 8.55053C17.2402 9.27785 17.5235 9.96147 18.0378 10.4758L19.5247 11.9629C20.0391 12.477 20.7227 12.7603 21.4498 12.7603H21.45C22.1771 12.7603 22.8607 12.477 23.3748 11.9629L29.2035 6.13477C30.2645 5.07316 30.2645 3.34623 29.2032 2.28469Z" fill="#FE5722"/>
<path d="M29.203 2.28453L27.7158 0.797422C27.7147 0.79625 27.7133 0.795605 27.7123 0.794434C28.7704 1.85627 28.7696 3.58063 27.7097 4.64111L21.881 10.4693C21.367 10.9833 20.6833 11.2666 19.9562 11.2666H19.956C19.2307 11.2666 18.549 10.9842 18.0352 10.4727C18.0361 10.4736 18.0366 10.4748 18.0376 10.4757L19.5245 11.9628C20.0388 12.4769 20.7224 12.7602 21.4495 12.7602H21.4498C22.1769 12.7602 22.8605 12.4769 23.3746 11.9628L29.2032 6.13467C30.2643 5.07301 30.2643 3.34607 29.203 2.28453Z" fill="#E54A19"/>
</g>
<defs>
<clipPath id="clip0_401_773">
<rect width="30" height="30" fill="white"/>
</clipPath>
</defs>
</svg>
