<svg width="30" height="30" viewBox="0 0 30 30" fill="none" xmlns="http://www.w3.org/2000/svg">
<g clip-path="url(#clip0_401_756)">
<path d="M29.3996 23.2201V29.4001H24.4796V23.2201C24.4796 22.4401 23.8196 21.7801 23.0396 21.7801H6.95961C6.17961 21.7801 5.51961 22.4401 5.51961 23.2201V29.4001H0.599609V23.2201C0.599609 19.7401 3.47961 16.8601 6.95961 16.8601H23.0396C26.5196 16.8601 29.3996 19.7401 29.3996 23.2201Z" fill="#98D0F1"/>
<path d="M26.82 23.04V29.4H24.42V23.22C24.42 22.44 23.76 21.78 22.98 21.78H6.96C6.18 21.78 5.52 22.44 5.52 23.22V29.4H3V23.04C3 21 4.62 19.38 6.66 19.38H23.16C25.2 19.32 26.82 21 26.82 23.04Z" fill="#56B3E5"/>
<path d="M13.6191 13.2002H16.3791V17.5802H13.6191V13.2002Z" fill="#D66556"/>
<path d="M18.3587 15.2402H11.6387C11.3987 15.2402 11.2188 15.4202 11.2188 15.6602V16.6202H18.8387V15.6602C18.7787 15.4202 18.5987 15.2402 18.3587 15.2402Z" fill="#D66556"/>
<path d="M15.0002 14.2801C18.7778 14.2801 21.8402 11.2177 21.8402 7.4401C21.8402 3.66247 18.7778 0.600098 15.0002 0.600098C11.2225 0.600098 8.16016 3.66247 8.16016 7.4401C8.16016 11.2177 11.2225 14.2801 15.0002 14.2801Z" fill="#ED7161"/>
<path d="M8.16016 7.43998C8.16016 11.22 11.2202 14.28 15.0002 14.28C18.7802 14.28 21.8402 11.22 21.8402 7.43998C21.8402 3.65998 8.16016 3.65998 8.16016 7.43998Z" fill="#D66556"/>
<path d="M14.9993 12.6602C17.8822 12.6602 20.2193 10.3231 20.2193 7.44022C20.2193 4.55729 17.8822 2.22021 14.9993 2.22021C12.1164 2.22021 9.7793 4.55729 9.7793 7.44022C9.7793 10.3231 12.1164 12.6602 14.9993 12.6602Z" fill="#E6E6E5"/>
<path d="M14.7589 2.64014H15.2389V3.48014H14.7589V2.64014ZM14.7589 11.4001H15.2389V12.2401H14.7589V11.4001ZM19.7833 7.22114V7.70114H18.9433V7.22114H19.7833ZM11.0587 7.18574V7.66574H10.2188V7.18574H11.0587Z" fill="#676767"/>
<path d="M18.2198 3.84473L18.5594 4.18433L17.9654 4.77833L17.6264 4.43873L18.2198 3.84473ZM12.0794 10.0565L12.4184 10.3961L11.8244 10.9901L11.4854 10.6505L12.0794 10.0565ZM18.5906 10.6559L18.251 10.9955L17.657 10.4015L17.9966 10.0625L18.5906 10.6559ZM12.3926 4.52933L12.053 4.86893L11.459 4.27493L11.7986 3.93533L12.3926 4.52933Z" fill="#676767"/>
<path d="M15.0005 8.39986C15.5638 8.39986 16.0205 7.94319 16.0205 7.37986C16.0205 6.81653 15.5638 6.35986 15.0005 6.35986C14.4371 6.35986 13.9805 6.81653 13.9805 7.37986C13.9805 7.94319 14.4371 8.39986 15.0005 8.39986Z" fill="#525252"/>
<path d="M15.1193 4.3199C15.1193 4.2599 14.9993 4.2599 14.9993 4.3199L14.2793 8.6399C14.2793 8.6999 14.2793 8.6999 14.3393 8.6999H15.6593C15.7193 8.6999 15.7193 8.6399 15.7193 8.6399L15.1193 4.3199Z" fill="#676767"/>
<path d="M20.5803 16.3799H9.42031C9.12031 16.3799 8.82031 16.6199 8.82031 16.9799V21.7799C8.82031 22.0799 9.06031 22.3799 9.42031 22.3799H20.5203C20.8203 22.3799 21.1203 22.1399 21.1203 21.7799V16.9799C21.1203 16.6199 20.8803 16.3799 20.5803 16.3799Z" fill="#EC7B72"/>
<path d="M8.87891 19.3203V21.7803C8.87891 22.0803 9.11891 22.3803 9.47891 22.3803H20.5789C20.8789 22.3803 21.1789 22.1403 21.1789 21.7803V19.3203H8.87891Z" fill="#ED7161"/>
</g>
<defs>
<clipPath id="clip0_401_756">
<rect width="30" height="30" fill="white"/>
</clipPath>
</defs>
</svg>
